<svg xmlns="http://www.w3.org/2000/svg" viewBox="90 0 750 1500" version="1.1" x="0px" y="0px">
  <path  fill="#5D707F" opacity="1.00" d=" M 445.08 397.05 C 447.33 395.65 448.95 392.77 451.94 392.96 C 455.69 392.29 457.62 396.08
    460.60 397.46 C 470.91 402.14 480.84 407.62 490.65 413.25 C 508.87 425.23 525.28 440.37 537.43 458.54 C 544.61 453.74 552.81
    450.84 560.98 448.23 C 572.20 444.84 584.61 444.14 595.78 448.10 C 613.48 453.92 629.31 466.21 638.35 482.61 C 649.50 471.44
    663.65 463.01 679.10 459.48 C 694.54 456.83 711.58 458.14 724.89 467.08 C 730.00 470.23 734.54 474.25 738.39 478.86 C 747.03
    471.39 758.62 467.74 769.96 467.96 C 780.92 467.82 791.49 471.07 801.99 473.79 C 817.83 477.72 833.59 482.49 849.95 483.70 C
    855.62 483.95 861.33 485.43 866.97 484.10 C 872.04 483.11 875.97 489.33 873.76 493.75 C 871.93 497.78 867.14 499.22 863.03
    498.77 C 850.65 497.84 838.21 497.02 826.07 494.29 C 815.32 491.82 804.66 488.99 793.99 486.22 C 783.62 483.74 772.84 480.16
    762.12 482.67 C 755.95 483.73 750.34 486.82 745.72 490.98 C 748.77 499.99 751.17 509.60 749.55 519.15 C 747.48 530.05 738.24
    539.60 727.09 541.00 C 719.59 542.09 712.97 535.23 712.80 527.99 C 711.59 513.29 719.19 499.56 728.48 488.75 C 720.84 479.25
    709.26 472.99 697.03 472.37 C 676.66 470.46 657.61 481.95 644.30 496.49 C 647.80 508.45 648.57 521.35 645.63 533.51 C 643.80
    540.47 640.68 547.35 635.54 552.48 C 631.21 555.75 625.74 558.53 620.16 557.62 C 615.85 556.28 611.55 553.25 610.46 548.63
     C 606.63 537.41 609.64 525.18 614.82 514.92 C 618.48 507.34 623.26 500.37 628.31 493.66 C 622.91 481.85 613.39 472.20 602.04
     466.01 C 593.73 461.76 584.41 458.16 574.92 459.59 C 564.07 461.06 553.80 465.29 544.25 470.49 C 552.72 487.57 558.20 506.82
     555.93 526.01 C 554.52 539.79 546.80 552.58 535.57 560.60 C 528.74 565.36 520.25 567.93 511.92 566.80 C 504.49 566.07 497.57
     561.76 493.66 555.39 C 487.11 544.87 486.60 531.63 489.84 519.92 C 494.66 503.88 503.07 488.80 515.00 476.97 C 518.46 473.33
      522.20 469.97 526.03 466.72 C 515.30 450.55 500.83 437.05 484.80 426.22 C 474.40 419.88 463.51 414.31 452.46 409.20 C 442.05
      413.92 431.99 419.35 422.05 424.97 C 405.20 435.98 390.22 450.01 378.82 466.64 C 385.92 472.66 392.71 479.12 398.33 486.57 C
       404.70 494.50 409.19 503.76 412.91 513.18 C 417.46 524.80 418.96 538.27 414.03 550.02 C 411.46 556.83 406.20 562.93 399.18
        565.30 C 389.52 568.91 378.43 566.71 370.03 561.02 C 359.05 553.47 351.35 541.39 349.31 528.19 C 346.32 508.32 352.01
        488.27 360.63 470.49 C 351.12 465.24 340.84 461.05 330.02 459.58 C 321.82 458.33 313.64 460.97 306.27 464.34 C 293.43
         470.33 282.59 480.72 276.69 493.67 C 286.09 506.44 295.58 520.65 296.26 537.01 C 296.07 543.71 295.34 552.07 288.85 555.79
          C 284.60 559.03 278.80 557.90 274.39 555.62 C 266.47 552.12 262.67 543.60 260.01 535.90 C 256.28 523.10 256.86 509.20
          260.71 496.49 C 249.78 484.77 235.62 475.06 219.50 472.65 C 208.46 471.35 196.49 472.77 187.15 479.22 C 183.10 481.78
          179.53 485.04 176.53 488.76 C 184.36 497.92 190.77 508.85 192.18 521.00 C 192.52 526.36 192.64 532.52 188.68 536.70 C
          185.43 540.73 179.68 541.91 174.85 540.46 C 167.37 538.29 160.84 532.74 157.58 525.65 C 152.50 514.61 155.49 501.95
          159.29 490.99 C 150.56 482.82 137.70 480.22 126.19 482.69 C 102.41 487.45 79.37 496.31 54.97 497.69 C 48.90 497.97
          42.73 499.54 36.69 498.32 C 31.30 497.18 28.44 489.69 32.80 485.81 C 35.56 482.73 39.68 484.65 43.15 484.71 C 47.14
          484.52 51.09 483.90 55.08 483.69 C 71.43 482.46 87.21 477.77 103.02 473.75 C 113.53 471.09 124.09 467.79 135.04 467.96
          C 146.34 467.74 157.89 471.36 166.51 478.80 C 176.84 466.75 192.02 458.68 208.04 458.44 C 230.07 456.52 251.33 467.37
          266.58 482.63 C 274.22 468.69 286.88 457.83 301.22 451.19 C 313.70 445.09 328.24 443.73 341.60 447.55 C 350.60 450.23
          359.65 453.32 367.54 458.54 C 376.70 444.44 388.87 432.48 401.99 422.07 C 415.00 411.59 430.16 404.33 445.08 397.05 M
          362.56 520.93 C 363.02 532.04 368.50 542.91 377.70 549.28 C 382.25 552.21 387.96 554.05 393.32 552.49 C 398.14 551.33
          400.67 546.42 401.95 542.04 C 405.30 531.35 401.01 520.23 396.48 510.59 C 391.10 498.32 382.12 488.05 372.11 479.31 C
          365.99 492.22 361.84 506.53 362.56 520.93 M 510.86 505.79 C 506.17 514.86 501.81 524.57 501.76 534.97 C 502.12 540.02
          503.45 545.26 506.69 549.27 C 509.67 553.12 515.19 553.64 519.63 552.60 C 527.13 550.92 532.93 545.20 537.00 538.95 C
          542.46 530.07 543.28 519.12 542.00 508.99 C 540.33 498.75 537.54 488.60 532.87 479.30 C 524.23 486.91 516.27 495.54
          510.86 505.79 M 170.14 503.45 C 169.26 508.27 167.88 513.38 169.71 518.16 C 170.96 522.38 174.48 525.52 178.54 526.99
          C 178.54 518.46 175.15 510.25 170.14 503.45 M 726.45 526.99 C 730.71 525.48 734.28 522.01 735.46 517.60 C 737.00 512.89
          735.62 507.96 734.87 503.24 C 730.03 510.21 726.37 518.35 726.45 526.99 M 271.85 511.33 C 271.00 517.57 271.48 523.93
          272.95 530.05 C 274.42 535.20 276.55 540.81 281.36 543.74 C 284.42 532.12 277.95 520.79 271.85 511.33 M 623.70 543.72 C
          625.39 542.44 627.17 541.14 628.19 539.22 C 633.23 530.88 634.11 520.67 633.16 511.16 C 627.19 520.71 620.43 532.07
          623.70 543.72 Z"/></svg>
